# xmcd CD database file
#
# Track frame offsets:
#	150
#	27712
#	52957
#	73207
#	104462
#	121107
#	148635
#	167375
#	183397
#	205667
#	217055
#
# Disc length: 3136 seconds
#
# Revision: 0
# Processed by: cddbd v1.5.2PL0 Copyright (c) Steve Scherf et al.
# Submitted via: CDex 1.51
#
DISCID=a20c3e0b
DTITLE=Leo Kysela and Robert Stützle - Live At Cafe
DYEAR=1989
DGENRE=Jazz
TTITLE0=On Broadway
TTITLE1=The house of the rising sun
TTITLE2=R.O. Bees solo
TTITLE3=50 times a day
TTITLE4=Winternight
TTITLE5=Here comes the sun
TTITLE6=Georgia on my mind
TTITLE7=Feel allright
TTITLE8=Get ready (Drum version)
TTITLE9=Sweet home Chicago
TTITLE10=Do you love me
EXTD=YEAR: 1989
EXTT0=
EXTT1=
EXTT2=
EXTT3=
EXTT4=
EXTT5=
EXTT6=
EXTT7=
EXTT8=
EXTT9=
EXTT10=
PLAYORDER=
